<svg width="17" height="17" viewBox="0 0 17 17" fill="none" xmlns="http://www.w3.org/2000/svg">
<g clip-path="url(#clip0_155_17)">
<path d="M5.60399 5.45152L7.78799 1.12452C7.82993 1.03747 7.89547 0.963953 7.97715 0.912329C8.05883 0.860705 8.15336 0.833053 8.24999 0.83252C8.43299 0.83252 8.61599 0.92952 8.71499 1.12452L10.899 5.45152L15.797 6.14752C15.9191 6.16671 16.0308 6.22743 16.1133 6.31943C16.1959 6.41142 16.2441 6.52907 16.25 6.65252C16.257 6.73471 16.2453 6.81741 16.2159 6.89446C16.1864 6.97151 16.14 7.04092 16.08 7.09752L12.557 10.4535L13.387 15.1835C13.465 15.6265 13.027 15.9735 12.641 15.7755L8.24999 13.5195L3.86099 15.7755C3.81508 15.7994 3.76587 15.8162 3.71499 15.8255C3.37299 15.8855 3.04699 15.5715 3.11499 15.1835L3.94499 10.4535L0.422988 7.09752C0.368233 7.04572 0.324711 6.98321 0.295123 6.91389C0.265535 6.84456 0.250512 6.76989 0.250988 6.69452C0.25104 6.58796 0.280449 6.48347 0.335988 6.39252C0.375386 6.32659 0.429086 6.27035 0.493125 6.22794C0.557164 6.18554 0.629908 6.15805 0.705988 6.14752L5.60399 5.45152V5.45152ZM8.24999 12.3595C8.33071 12.3592 8.41031 12.3784 8.48199 12.4155L12.168 14.3095L11.474 10.3525C11.4576 10.2615 11.4638 10.1679 11.4921 10.0798C11.5203 9.99178 11.5697 9.91201 11.636 9.84752L14.543 7.07752L10.491 6.50152C10.4071 6.48885 10.3275 6.45603 10.2591 6.40587C10.1906 6.35571 10.1353 6.28971 10.098 6.21352L8.25099 2.55552L8.24999 2.55852V12.3585V12.3595Z" fill="#E1A829"/>
</g>
<defs>
<clipPath id="clip0_155_17">
<rect width="16" height="16" fill="white" transform="translate(0.25 0.33252)"/>
</clipPath>
</defs>
</svg>
