<svg width="17" height="17" viewBox="0 0 17 17" fill="none" xmlns="http://www.w3.org/2000/svg">
<g clip-path="url(#clip0_155_19)">
<path d="M3.11563 15.1826C3.03763 15.6266 3.47563 15.9736 3.86163 15.7756L8.25163 13.5196L12.6406 15.7756C13.0266 15.9736 13.4646 15.6266 13.3866 15.1836L12.5566 10.4536L16.0786 7.09756C16.4086 6.78356 16.2386 6.20956 15.7966 6.14756L10.8986 5.45156L8.71463 1.12456C8.67303 1.03685 8.60739 0.962748 8.52534 0.910857C8.44329 0.858966 8.34821 0.831421 8.25113 0.831421C8.15405 0.831421 8.05897 0.858966 7.97692 0.910857C7.89487 0.962748 7.82923 1.03685 7.78763 1.12456L5.60363 5.45256L0.70563 6.14856C0.26463 6.21056 0.09363 6.78456 0.42263 7.09856L3.94563 10.4546L3.11563 15.1846V15.1826ZM8.02063 12.4156L4.33463 14.3096L5.02863 10.3526C5.04489 10.2615 5.03853 10.1678 5.01011 10.0797C4.98168 9.99168 4.93207 9.91196 4.86563 9.84756L1.95963 7.07756L6.01163 6.50156C6.09553 6.48889 6.17512 6.45607 6.24356 6.40592C6.31201 6.35576 6.36728 6.28976 6.40463 6.21356L8.24963 2.55556L10.0966 6.21356C10.134 6.28976 10.1893 6.35576 10.2577 6.40592C10.3261 6.45607 10.4057 6.48889 10.4896 6.50156L14.5416 7.07656L11.6356 9.84656C11.569 9.91106 11.5193 9.99095 11.4909 10.0792C11.4625 10.1674 11.4562 10.2613 11.4726 10.3526L12.1666 14.3096L8.48063 12.4156C8.40935 12.3788 8.33032 12.3596 8.25013 12.3596C8.16994 12.3596 8.09091 12.3788 8.01963 12.4156H8.02063Z" fill="#E1A829"/>
</g>
<defs>
<clipPath id="clip0_155_19">
<rect width="16" height="16" fill="white" transform="translate(0.25 0.33252)"/>
</clipPath>
</defs>
</svg>
