<svg width="22" height="17" viewBox="0 0 22 17" fill="none" xmlns="http://www.w3.org/2000/svg">
<path d="M7.00002 14.75C7.00002 15.1478 6.84198 15.5293 6.56068 15.8107C6.27937 16.092 5.89784 16.25 5.50002 16.25C5.10219 16.25 4.72066 16.092 4.43936 15.8107C4.15805 15.5293 4.00002 15.1478 4.00002 14.75M7.00002 14.75C7.00002 14.3522 6.84198 13.9706 6.56068 13.6893C6.27937 13.408 5.89784 13.25 5.50002 13.25C5.10219 13.25 4.72066 13.408 4.43936 13.6893C4.15805 13.9706 4.00002 14.3522 4.00002 14.75M7.00002 14.75H13M4.00002 14.75H2.12502C1.82665 14.75 1.5405 14.6315 1.32952 14.4205C1.11855 14.2095 1.00002 13.9234 1.00002 13.625V10.25M13 14.75H15.25M13 14.75V10.25M1.00002 10.25V2.61499C0.998429 2.34116 1.09848 2.07648 1.28081 1.87217C1.46313 1.66786 1.71477 1.53845 1.98702 1.50899C5.32006 1.16302 8.67997 1.16302 12.013 1.50899C12.578 1.56699 13 2.04699 13 2.61499V3.57299M1.00002 10.25H13M18.25 14.75C18.25 15.1478 18.092 15.5293 17.8107 15.8107C17.5294 16.092 17.1478 16.25 16.75 16.25C16.3522 16.25 15.9707 16.092 15.6894 15.8107C15.4081 15.5293 15.25 15.1478 15.25 14.75M18.25 14.75C18.25 14.3522 18.092 13.9706 17.8107 13.6893C17.5294 13.408 17.1478 13.25 16.75 13.25C16.3522 13.25 15.9707 13.408 15.6894 13.6893C15.4081 13.9706 15.25 14.3522 15.25 14.75M18.25 14.75H19.375C19.996 14.75 20.504 14.246 20.465 13.626C20.2641 10.3236 19.1519 7.14155 17.252 4.43299C17.0711 4.17927 16.8348 3.97001 16.5611 3.82102C16.2873 3.67203 15.9833 3.58722 15.672 3.57299H13M13 3.57299V10.25" stroke="black" stroke-width="1.5" stroke-linecap="round" stroke-linejoin="round"/>
</svg>
