<svg width="32" height="40" viewBox="0 0 32 40" fill="none" xmlns="http://www.w3.org/2000/svg">
<path d="M31.5395 8.09891L16.5057 0.0881401C16.2827 -0.0308937 16.0154 -0.029223 15.794 0.0923167L1.17629 8.10309C0.936556 8.23464 0.787872 8.48608 0.787872 8.75964V19.2237C0.796639 27.8255 5.89296 35.6074 13.7742 39.0535L15.8032 39.9377C15.9929 40.0204 16.2089 40.0209 16.3989 39.9385L18.6852 38.9512C26.7125 35.5799 31.935 27.7229 31.9359 19.0162V8.75964C31.9359 8.48316 31.7834 8.22881 31.5395 8.09891ZM30.439 19.0162C30.4374 27.1225 25.5737 34.4372 18.0992 37.5742L18.0942 37.5767L16.1032 38.4362L14.3732 37.6815C7.03693 34.4739 2.29271 27.2307 2.28436 19.2237V9.20279L16.1587 1.59882L30.439 9.20823V19.0162Z" fill="white"/>
<path d="M10.641 18.7421C10.3724 18.4276 9.90005 18.3904 9.58555 18.6589C9.27105 18.9271 9.23389 19.3999 9.50244 19.7141L13.456 24.3438C13.72 24.6529 14.1823 24.6951 14.4972 24.4386L23.705 16.9474C24.0258 16.6868 24.0742 16.2153 23.8132 15.8945C23.5525 15.5741 23.081 15.5253 22.7603 15.7863L14.1197 22.8156L10.641 18.7421Z" fill="white"/>
</svg>
