<svg width="36" height="39" viewBox="0 0 36 39" fill="none" xmlns="http://www.w3.org/2000/svg">
<path d="M0.935867 1H3.91478C5.76377 1 7.21898 2.69091 7.0649 4.63636L5.64393 22.7455C5.58844 23.447 5.67078 24.1532 5.88572 24.8192C6.10066 25.4852 6.44352 26.0965 6.89257 26.6144C7.34162 27.1323 7.88707 27.5456 8.49436 27.8279C9.10165 28.1102 9.75754 28.2555 10.4205 28.2545H28.6535C31.1188 28.2545 33.2759 26.1091 33.4643 23.5091L34.3888 9.87273C34.5942 6.85455 32.4371 4.4 29.578 4.4H7.47579M12.92 11.9091H33.4643M25.3322 37.3636C25.8997 37.3636 26.4441 37.1242 26.8454 36.698C27.2467 36.2718 27.4722 35.6937 27.4722 35.0909C27.4722 34.4881 27.2467 33.9101 26.8454 33.4838C26.4441 33.0576 25.8997 32.8182 25.3322 32.8182C24.7646 32.8182 24.2203 33.0576 23.8189 33.4838C23.4176 33.9101 23.1921 34.4881 23.1921 35.0909C23.1921 35.6937 23.4176 36.2718 23.8189 36.698C24.2203 37.1242 24.7646 37.3636 25.3322 37.3636ZM11.636 37.3636C12.2036 37.3636 12.7479 37.1242 13.1492 36.698C13.5506 36.2718 13.776 35.6937 13.776 35.0909C13.776 34.4881 13.5506 33.9101 13.1492 33.4838C12.7479 33.0576 12.2036 32.8182 11.636 32.8182C11.0684 32.8182 10.5241 33.0576 10.1228 33.4838C9.72144 33.9101 9.49597 34.4881 9.49597 35.0909C9.49597 35.6937 9.72144 36.2718 10.1228 36.698C10.5241 37.1242 11.0684 37.3636 11.636 37.3636Z" stroke="white" stroke-width="1.6"/>
<path d="M0.935867 1H3.91478C5.76377 1 7.21898 2.69091 7.0649 4.63636L5.64393 22.7455C5.58844 23.447 5.67078 24.1532 5.88572 24.8192C6.10066 25.4852 6.44352 26.0965 6.89257 26.6144C7.34162 27.1323 7.88707 27.5456 8.49436 27.8279C9.10165 28.1102 9.75754 28.2555 10.4205 28.2545H28.6535C31.1188 28.2545 33.2759 26.1091 33.4643 23.5091L34.3888 9.87273C34.5942 6.85455 32.4371 4.4 29.578 4.4H7.47579M12.92 11.9091H33.4643M25.3322 37.3636C25.8997 37.3636 26.4441 37.1242 26.8454 36.698C27.2467 36.2718 27.4722 35.6937 27.4722 35.0909C27.4722 34.4881 27.2467 33.9101 26.8454 33.4838C26.4441 33.0576 25.8997 32.8182 25.3322 32.8182C24.7646 32.8182 24.2203 33.0576 23.8189 33.4838C23.4176 33.9101 23.1921 34.4881 23.1921 35.0909C23.1921 35.6937 23.4176 36.2718 23.8189 36.698C24.2203 37.1242 24.7646 37.3636 25.3322 37.3636ZM11.636 37.3636C12.2036 37.3636 12.7479 37.1242 13.1492 36.698C13.5506 36.2718 13.776 35.6937 13.776 35.0909C13.776 34.4881 13.5506 33.9101 13.1492 33.4838C12.7479 33.0576 12.2036 32.8182 11.636 32.8182C11.0684 32.8182 10.5241 33.0576 10.1228 33.4838C9.72144 33.9101 9.49597 34.4881 9.49597 35.0909C9.49597 35.6937 9.72144 36.2718 10.1228 36.698C10.5241 37.1242 11.0684 37.3636 11.636 37.3636Z" stroke="white" stroke-width="1.6"/>
</svg>
