<svg width="40" height="38" viewBox="0 0 40 38" fill="none" xmlns="http://www.w3.org/2000/svg">
<path d="M3.90625 21.4348C3.47503 21.4348 3.125 21.785 3.125 22.2161C3.125 22.6473 3.47503 22.9973 3.90625 22.9973C4.33747 22.9973 4.6875 22.6473 4.6875 22.2161C4.6875 21.785 4.33747 21.4348 3.90625 21.4348Z" fill="white"/>
<path d="M35.9077 24.144L28.5425 26.676C28.5752 26.4946 28.5935 26.3098 28.5935 26.1221C28.5935 24.399 27.1918 22.9971 25.4685 22.9971H20.4093C20.275 22.9971 20.1425 22.9626 20.0257 22.8966L15.8982 20.5751C15.0821 20.1153 14.1547 19.8721 13.2163 19.8721H7.67793C7.35567 18.963 6.48713 18.3098 5.46877 18.3098H0.781252C0.349732 18.3098 0 18.6596 0 19.0911V33.1533C0 33.5848 0.349732 33.9346 0.781252 33.9346H5.46877C6.46393 33.9346 7.31722 33.3093 7.65597 32.431C8.54036 32.5408 9.56362 32.8025 10.2066 33.1881L14.2923 35.6396C15.8402 36.5686 17.6123 37.0596 19.4178 37.0596C20.8485 37.0596 22.2345 36.7593 23.538 36.1673L38.1195 29.7466C39.7345 29.0915 40.532 27.1538 39.6088 25.4461C38.9298 24.1895 37.3395 23.6303 35.9077 24.144ZM6.25002 31.5945C6.24818 32.0236 5.89815 32.3721 5.46877 32.3721H1.5625V19.8723H5.46877C5.89937 19.8723 6.25002 20.2226 6.25002 20.6536V31.5945ZM37.526 28.3016C37.5178 28.3046 37.5095 28.3083 37.5013 28.3116L22.8952 34.743C21.7952 35.2435 20.625 35.4971 19.4178 35.4971C17.8955 35.4971 16.4014 35.0833 15.0965 34.3L11.0104 31.8485C10.1358 31.3238 8.88338 31.004 7.81252 30.8758V21.4348H13.2163C13.8864 21.4348 14.5487 21.6081 15.1319 21.937L19.2593 24.2583C19.6092 24.4555 20.007 24.5598 20.4093 24.5598H25.4685C26.33 24.5598 27.031 25.2606 27.031 26.1223C27.031 26.9808 26.3297 27.6848 25.4685 27.6848H17.5267C17.095 27.6848 16.7453 28.0346 16.7453 28.4661C16.7453 28.8973 17.095 29.2471 17.5267 29.2471H25.4685C25.9808 29.2471 26.4853 29.1198 26.933 28.8811C26.933 28.8811 36.4287 25.617 36.4323 25.6158C37.1323 25.3631 37.924 25.6146 38.2343 26.189C38.6997 27.0498 38.3148 27.9858 37.526 28.3016Z" fill="white"/>
<path d="M22.7512 19.9027C22.8982 20.03 23.0804 20.0935 23.2629 20.0935C23.4454 20.0935 23.6279 20.03 23.7747 19.9027C30.1489 14.3784 34.0919 11.5827 34.0919 7.23823C34.0919 3.80133 31.6587 0.953125 28.2404 0.953125C25.9956 0.953125 24.2764 2.24706 23.1692 4.18891C22.0646 2.25134 20.3472 0.953125 18.0991 0.953125C15.4822 0.953125 13.2944 2.64898 12.5253 5.27319C12.4039 5.68733 12.6413 6.12128 13.0554 6.24274C13.4696 6.36419 13.9035 6.12678 14.0247 5.71264C14.5938 3.77051 16.1929 2.51563 18.0991 2.51563C20.3277 2.51563 21.8912 4.49469 22.4164 6.33734C22.5101 6.67579 22.8184 6.91016 23.1692 6.91016C23.5206 6.91016 23.8284 6.67579 23.9221 6.33734C23.9329 6.29919 25.0181 2.51563 28.2404 2.51563C30.6854 2.51563 32.5294 4.54566 32.5294 7.23823C32.5294 10.7136 29.1321 13.2191 23.2624 18.2802C19.6861 15.2088 16.8451 13.0469 15.2304 10.9321C14.9686 10.5891 14.4785 10.5231 14.1354 10.785C13.7924 11.0468 13.7268 11.5369 13.9884 11.8803C15.8084 14.264 18.8809 16.548 22.7512 19.9027Z" fill="white"/>
<path d="M13.2031 7.84131C12.7719 7.84131 12.4219 8.19134 12.4219 8.62254C12.4219 9.05376 12.7719 9.40379 13.2031 9.40379C13.6343 9.40379 13.9844 9.05376 13.9844 8.62254C13.9844 8.19134 13.6343 7.84131 13.2031 7.84131Z" fill="white"/>
</svg>
