<svg width="38" height="33" viewBox="0 0 38 33" fill="none" xmlns="http://www.w3.org/2000/svg">
<path d="M20.3644 27.5996C19.7537 27.2062 19.0477 26.9645 18.2523 26.6072C17.9931 26.8504 17.6043 27.0501 17.5403 27.3263C17.4762 27.6026 17.6297 28.1266 17.8561 28.2662C18.4216 28.6153 19.04 28.8688 19.6866 29.0169C19.9458 29.0739 20.4403 28.8127 20.555 28.5665C20.6697 28.3202 20.5669 27.7287 20.3644 27.5996Z" fill="#6E717C"/>
<path d="M5.675 10.8759C5.61773 10.8798 5.5603 10.8715 5.50641 10.8516C5.45253 10.8317 5.40338 10.8006 5.36219 10.7603C5.28686 10.6744 5.24691 10.5627 5.25048 10.448H4.50573C4.50034 10.5985 4.52785 10.7483 4.58628 10.8868C4.64471 11.0254 4.73263 11.1493 4.84385 11.2498C5.05077 11.3952 5.29093 11.4852 5.54181 11.5115C5.7927 11.5377 6.04609 11.4993 6.27823 11.3999C6.43174 11.3266 6.56065 11.2097 6.64911 11.0636C6.73557 10.9144 6.77938 10.7439 6.77572 10.5711C6.78297 10.3896 6.73062 10.2107 6.62677 10.0622C6.52526 9.92775 6.38468 9.82854 6.22461 9.77842V9.76042C6.37395 9.70617 6.50218 9.60523 6.5906 9.47235C6.67903 9.33947 6.72302 9.18158 6.71615 9.02172C6.72009 8.8589 6.67625 8.69853 6.59013 8.56072C6.50402 8.42291 6.37946 8.31379 6.23207 8.24703C6.0517 8.16457 5.8551 8.12452 5.65712 8.12992C5.36759 8.11402 5.08253 8.20712 4.85727 8.39116C4.75528 8.48675 4.67463 8.60313 4.6207 8.73256C4.56677 8.86198 4.54078 9.00151 4.54446 9.14184H5.2892C5.29512 9.04839 5.32887 8.95892 5.38603 8.88511C5.41682 8.84895 5.45571 8.82069 5.49948 8.80268C5.54325 8.78466 5.59066 8.77742 5.63776 8.78153C5.68264 8.779 5.72756 8.78565 5.7698 8.80114C5.81204 8.81662 5.85073 8.84059 5.88351 8.87159C5.91454 8.90537 5.93846 8.94513 5.95382 8.98848C5.96918 9.03183 5.97567 9.07789 5.9729 9.12384C5.97756 9.17911 5.96694 9.23457 5.94222 9.28413C5.91751 9.33369 5.87966 9.37538 5.83287 9.40458C5.71835 9.46203 5.5913 9.4894 5.46348 9.48415H5.31453V10.1102H5.46348C5.61517 10.0983 5.76699 10.1317 5.89991 10.2063C5.94675 10.243 5.98369 10.291 6.00737 10.3458C6.03105 10.4006 6.0407 10.4605 6.03544 10.5201C6.03783 10.5688 6.03064 10.6175 6.01428 10.6633C5.99792 10.7092 5.97271 10.7513 5.94011 10.7873C5.90404 10.8192 5.86199 10.8435 5.81646 10.8587C5.77092 10.8739 5.72282 10.8798 5.675 10.8759Z" fill="#6E717C"/>
<path d="M8.34713 8.12988C7.90624 8.12988 7.587 8.28002 7.38939 8.58029C7.17252 8.94851 7.06885 9.37327 7.09149 9.80088C7.09149 10.3234 7.19079 10.7333 7.38939 11.0305C7.58799 11.3278 7.90723 11.4779 8.34713 11.4809C8.78802 11.4809 9.10777 11.3308 9.30637 11.0305C9.50497 10.7303 9.60427 10.3204 9.60427 9.80088C9.60427 9.28441 9.50497 8.87756 9.30637 8.58029C9.10777 8.28302 8.78802 8.13289 8.34713 8.12988ZM8.81632 10.3024C8.79786 10.4224 8.74624 10.5348 8.66737 10.6266C8.57832 10.707 8.46296 10.7515 8.3434 10.7515C8.22385 10.7515 8.1085 10.707 8.01945 10.6266C7.94065 10.5347 7.88904 10.4224 7.8705 10.3024C7.84412 10.1351 7.83216 9.96579 7.83475 9.79641C7.82483 9.55861 7.85814 9.32097 7.93304 9.09525C7.97256 9.02121 8.03123 8.95935 8.10283 8.91623C8.17443 8.87311 8.25627 8.85036 8.33967 8.85036C8.42308 8.85036 8.50494 8.87311 8.57654 8.91623C8.64813 8.95935 8.70681 9.02121 8.74632 9.09525C8.82123 9.32097 8.85453 9.55861 8.84462 9.79641C8.84984 9.96657 8.84038 10.1369 8.81632 10.3054V10.3024Z" fill="#6E717C"/>
<path d="M12.8022 8.52469C12.5339 8.38761 12.2361 8.31956 11.9353 8.32654H10.7601V11.4884H11.9353C12.2356 11.4949 12.5328 11.4268 12.8008 11.2902C13.0428 11.1646 13.2431 10.9705 13.3772 10.7317C13.5102 10.4771 13.5798 10.1937 13.5798 9.90598C13.5798 9.61823 13.5102 9.33481 13.3772 9.08023C13.2427 8.84302 13.043 8.65007 12.8022 8.52469ZM12.5609 10.5831C12.4699 10.6662 12.3633 10.7301 12.2475 10.7711C12.1316 10.8121 12.0088 10.8293 11.8862 10.8218H11.5242V8.98412H11.8862C12.0095 8.97172 12.1341 8.98707 12.2508 9.02909C12.3675 9.07111 12.4736 9.13876 12.5612 9.2271C12.6488 9.31544 12.7159 9.42228 12.7576 9.53995C12.7993 9.65761 12.8145 9.78316 12.8022 9.90748C12.8095 10.0311 12.7915 10.1548 12.7492 10.2711C12.7069 10.3873 12.6413 10.4935 12.5565 10.5831H12.5609Z" fill="#6E717C"/>
<path d="M12.0843 18.2205C10.9955 18.2295 9.90814 18.2205 8.8208 18.2205H6.28866V15.9955H7.00361C10.4155 15.9955 13.8275 15.9955 17.2394 15.9955C17.7682 15.9955 18.2284 15.8544 18.2136 15.2448C18.1987 14.6352 17.7548 14.4941 17.2215 14.4941C13.3886 14.5001 9.55611 14.5001 5.72414 14.4941C5.04493 14.4941 4.72468 14.7854 4.73362 15.4835C4.74852 16.6846 4.73362 17.8752 4.73362 19.0718C4.73362 21.1557 4.73362 23.2381 4.73362 25.358H1.5193C1.5044 25.2079 1.488 25.1103 1.488 25.0142C1.488 19.6093 1.48801 14.2044 1.47162 8.78893C1.47162 8.316 1.70101 8.13886 2.03316 7.94218C5.42226 5.94036 8.8059 3.93104 12.1841 1.91421C12.6205 1.65297 12.9407 1.64546 13.3757 1.9067C16.9922 4.05665 20.6265 6.17657 24.249 8.31151C24.7167 8.58776 25.1859 8.76194 25.5255 8.18391C25.8651 7.60589 25.4421 7.28308 24.9893 7.00983C21.1255 4.74277 17.2633 2.47269 13.4025 0.199627C12.9705 -0.0556047 12.6026 -0.0735947 12.1647 0.189144C8.11428 2.61535 4.05937 5.03352 0 7.44371V26.4375C0.367905 26.5876 0.732835 26.8624 1.10223 26.8684C3.72225 26.9074 6.34377 26.8924 8.96528 26.8939C9.78003 26.8939 10.6037 26.948 11.4095 26.8639C11.6806 26.8354 11.913 26.4495 12.1647 26.2273C11.9493 25.9416 11.7085 25.6762 11.4453 25.4346C11.3217 25.337 11.0625 25.4136 10.8644 25.4136H6.27673V23.1615C6.90232 23.1615 7.46834 23.1615 8.03435 23.1615C9.22594 23.1615 10.4086 23.1915 11.5928 23.1285C11.8296 23.115 12.0485 22.7426 12.2764 22.5279C12.0545 22.3387 11.8549 22.1 11.6017 21.9769C11.42 21.8899 11.1653 21.9574 10.9418 21.9574H6.26781V19.4516C6.37923 19.4322 6.4916 19.4186 6.60443 19.4111C8.43353 19.4111 10.2631 19.4111 12.0932 19.4111C12.5222 19.4111 12.9333 19.3405 12.9214 18.7986C12.9095 18.2566 12.5177 18.216 12.0843 18.2205Z" fill="#6E717C"/>
<path d="M30.0416 26.9269C29.8242 26.9615 29.6186 27.2167 29.4578 27.4179C29.3926 27.5527 29.3773 27.7066 29.4146 27.8518C29.5069 28.4253 29.2373 28.6715 28.7234 28.8757C27.085 29.5243 25.4868 30.2345 23.8707 30.9161C23.6547 31.0062 23.4238 31.0752 23.1378 31.1803C23.1378 28.5875 23.1378 26.0982 23.1512 23.6075C23.1592 23.5064 23.1902 23.4085 23.2419 23.3215C23.2935 23.2345 23.3645 23.1608 23.4491 23.106C25.3855 22.2592 27.3471 21.4395 29.3997 20.5702C29.3997 21.2608 29.3997 21.8073 29.3997 22.3553C29.3997 22.8763 29.5963 23.2561 30.1444 23.2696C30.6925 23.2832 30.8892 22.8808 30.8892 22.3613C30.8892 21.3104 30.8579 20.2684 30.8892 19.2234C30.9055 18.6844 30.6791 18.3977 30.2174 18.1995C27.8089 17.1666 25.4108 16.1126 22.9963 15.0947C22.7269 14.993 22.4301 14.993 22.1607 15.0947C19.7239 16.1216 17.296 17.1701 14.8771 18.2401C14.2306 18.5268 13.8449 19.0373 13.8493 19.812C13.8623 22.7777 13.8623 25.7434 13.8493 28.7091C13.8493 29.3096 14.0534 29.6654 14.6269 29.9012C17.0279 30.8861 19.4052 31.928 21.8107 32.9039C22.1903 33.0428 22.6063 33.0428 22.9859 32.9039C25.3438 31.946 27.6808 30.9371 30.0238 29.9417C30.8221 29.6024 31.2868 27.9148 30.7387 27.2272C30.6524 27.1276 30.5449 27.0488 30.4242 26.9968C30.3035 26.9449 30.1728 26.921 30.0416 26.9269ZM17.0324 18.9277C18.6142 18.2415 20.2095 17.5764 21.7764 16.8618C22.338 16.6051 22.8191 16.5615 23.3657 16.8618C23.7068 17.0555 24.0807 17.1906 24.6243 17.4368L21.4964 18.7775C20.9751 18.9997 20.421 19.1664 19.9384 19.4547C18.7155 20.1843 17.5463 20.2309 16.3815 19.2355C16.5781 19.1469 16.8015 19.0283 17.0324 18.9277ZM21.62 30.871C21.6008 30.9713 21.5703 31.069 21.5292 31.1623C20.5848 30.7689 19.6584 30.3861 18.7334 29.9987C17.7771 29.5979 16.8134 29.2135 15.8736 28.7736C15.6576 28.673 15.3865 28.3773 15.3835 28.1731C15.3493 25.6868 15.3612 23.1991 15.3612 20.5672C17.4092 21.435 19.3411 22.2442 21.2611 23.085C21.3586 23.1417 21.4418 23.2204 21.5041 23.3149C21.5664 23.4095 21.6061 23.5173 21.62 23.63C21.6424 26.0396 21.6275 28.4553 21.62 30.871ZM20.2944 20.9365C22.3246 20.0687 24.316 19.2114 26.3119 18.3842C26.5221 18.3299 26.7444 18.3495 26.942 18.4397C27.5095 18.6589 28.0621 18.9172 28.7577 19.2205C27.7597 19.6484 26.8839 20.0267 26.0051 20.399C25.3006 20.6993 24.532 20.893 23.9019 21.2998C22.5942 22.1556 21.4845 21.6587 20.3018 20.9365H20.2944Z" fill="#6E717C"/>
<path d="M16.3546 11.4884V8.97511H15.5905V9.33095C15.5178 9.21153 15.415 9.11365 15.2926 9.04721C15.1496 8.97268 14.9904 8.93548 14.8294 8.93908C14.6321 8.93673 14.4383 8.99145 14.2708 9.09673C14.1 9.20662 13.9632 9.36269 13.8761 9.54714C13.7801 9.76107 13.7304 9.99322 13.7304 10.228C13.7304 10.4629 13.7801 10.695 13.8761 10.9089C13.9638 11.0929 14.1005 11.2489 14.2708 11.3593C14.4362 11.4657 14.6287 11.5216 14.8249 11.52C14.9859 11.5236 15.1452 11.4864 15.2882 11.4119C15.414 11.3458 15.5207 11.248 15.598 11.1281V11.4839L16.3546 11.4884ZM15.4327 10.6867C15.3833 10.7403 15.3233 10.7829 15.2566 10.8116C15.1899 10.8403 15.1179 10.8545 15.0454 10.8533C14.9728 10.8543 14.9009 10.8397 14.8343 10.8104C14.7678 10.7811 14.7083 10.738 14.6596 10.6837C14.5504 10.5601 14.4933 10.3986 14.5002 10.2333C14.4961 10.1513 14.5081 10.0694 14.5354 9.99209C14.5628 9.91481 14.605 9.84371 14.6596 9.78287C14.7097 9.7306 14.7698 9.68904 14.8362 9.66066C14.9026 9.63228 14.974 9.61766 15.0461 9.61766C15.1182 9.61766 15.1896 9.63228 15.256 9.66066C15.3225 9.68904 15.3825 9.7306 15.4327 9.78287C15.5349 9.9121 15.5905 10.0725 15.5905 10.2378C15.5905 10.4031 15.5349 10.5635 15.4327 10.6927V10.6867Z" fill="#6E717C"/>
<path d="M17.7577 12.682L19.3217 8.9751H18.495L17.9231 10.547L17.3466 8.9751H16.4932L17.5075 11.4028L16.9355 12.682H17.7577Z" fill="#6E717C"/>
<path d="M20.6921 10.8999C20.6257 10.9416 20.5482 10.9616 20.4702 10.957C20.3758 10.9601 20.2831 10.9316 20.2065 10.8759C20.1728 10.8511 20.1447 10.8195 20.1239 10.783C20.1031 10.7465 20.0902 10.7061 20.0859 10.6642H19.3307C19.3417 10.8236 19.3992 10.9762 19.496 11.1026C19.6014 11.239 19.7399 11.3455 19.8982 11.4119C20.082 11.4898 20.2798 11.5281 20.4791 11.5245C20.6621 11.5283 20.8441 11.4946 21.0138 11.4254C21.1544 11.3691 21.2766 11.2745 21.3668 11.1522C21.4482 11.0376 21.491 10.8997 21.489 10.7588C21.4941 10.6079 21.4461 10.4601 21.3534 10.3414C21.2711 10.2421 21.1657 10.1647 21.0466 10.1162C20.9006 10.0602 20.7514 10.0131 20.5997 9.97511C20.4782 9.95137 20.3594 9.91515 20.2452 9.86702C20.212 9.85505 20.1831 9.83308 20.1626 9.80409C20.1421 9.77509 20.1309 9.74047 20.1305 9.70486C20.1297 9.67695 20.1357 9.64925 20.1482 9.62433C20.1607 9.59941 20.1792 9.57807 20.202 9.56224C20.2636 9.52415 20.3355 9.5063 20.4076 9.51118C20.4982 9.50685 20.5875 9.53387 20.6608 9.58775C20.6926 9.61276 20.719 9.64403 20.7385 9.67964C20.758 9.71526 20.77 9.7545 20.774 9.79496H21.48C21.4625 9.55459 21.3511 9.33102 21.1702 9.17337C20.9587 9.00615 20.6938 8.92281 20.4255 8.93915C20.238 8.93451 20.0518 8.96984 19.8788 9.04277C19.7385 9.10092 19.6175 9.19832 19.5303 9.32351C19.4518 9.43993 19.4103 9.57764 19.4111 9.71839C19.4034 9.86544 19.4495 10.0102 19.5407 10.1253C19.6237 10.2235 19.7297 10.2993 19.849 10.3459C19.9948 10.4008 20.1441 10.4454 20.2959 10.4796C20.4195 10.5074 20.5405 10.5455 20.6578 10.5937C20.6861 10.6054 20.7108 10.6246 20.7293 10.6492C20.7478 10.6738 20.7593 10.7029 20.7628 10.7336C20.7663 10.7643 20.7616 10.7953 20.7492 10.8235C20.7367 10.8517 20.717 10.876 20.6921 10.8939V10.8999Z" fill="#6E717C"/>
<path d="M37.5652 19.5338C37.4163 23.107 34.4373 26.0437 30.7612 26.0722C29.2047 26.0843 27.6467 26.0722 26.0887 26.0722H25.2501C25.315 26.1799 25.3861 26.2837 25.4631 26.383C25.761 26.6923 25.8787 27.0286 25.5242 27.3574C25.1697 27.6862 24.8464 27.4775 24.5679 27.1863C24.1047 26.7013 23.6057 26.2449 23.1961 25.7179C23.0397 25.5168 22.9444 25.0213 23.065 24.8907C23.6758 24.2399 24.3319 23.6338 25.0282 23.077C25.1637 22.9674 25.5971 23.0305 25.7252 23.1701C25.8533 23.3098 25.8563 23.6776 25.7759 23.8908C25.6954 24.104 25.4422 24.2811 25.1563 24.5874H30.6078C33.6821 24.5874 36.0549 22.2588 36.0787 19.202C36.1055 15.9786 33.7834 13.5253 30.6689 13.4968C29.3596 13.4848 25.3212 13.4968 24.0104 13.4968C23.501 13.4968 23.0754 13.3106 23.065 12.7461C23.0546 12.1816 23.4966 11.9954 24.0104 11.9954C25.4448 12.006 29.5964 11.9955 31.0293 12.0165C34.19 12.072 37.7633 14.9366 37.5652 19.5338Z" fill="#6E717C"/>
</svg>
