<svg width="37" height="37" viewBox="0 0 37 37" fill="none" xmlns="http://www.w3.org/2000/svg">
<path d="M8.10572 36.9962H7.60009C7.46789 36.8785 7.33087 36.7665 7.2064 36.6411C4.92461 34.3624 2.64347 32.0821 0.362974 29.8001C-0.126255 29.31 -0.119501 28.9781 0.374553 28.4794C1.18221 27.6699 1.9976 26.8692 2.79272 26.0472C2.92549 25.9022 3.00657 25.7173 3.02334 25.5214C3.05712 24.9214 3.06001 24.3184 3.0436 23.7174C3.03164 23.5452 2.96389 23.3816 2.85061 23.2514C2.36814 22.7015 1.85576 22.1719 1.35881 21.6316C1.0423 21.2881 1.00274 21.0354 1.20152 20.6167C1.51513 19.9549 1.84128 19.2988 2.14235 18.6312C2.19541 18.4944 2.19541 18.3426 2.14235 18.2058C1.84611 17.5362 1.53346 16.8734 1.21213 16.2155C1.01914 15.8296 1.07703 15.5064 1.3752 15.1996C1.85768 14.6999 2.32955 14.1808 2.81781 13.683C2.90142 13.6093 2.9635 13.5143 2.99748 13.4082C3.03146 13.302 3.03606 13.1886 3.0108 13.0801C2.89887 12.4047 2.85158 11.7188 2.74929 11.0425C2.67692 10.565 2.85641 10.2707 3.27713 10.0556C3.87732 9.75266 4.45725 9.40919 5.05552 9.10144C5.15266 9.05903 5.2373 8.99243 5.30133 8.90797C5.36536 8.82352 5.40665 8.72403 5.42124 8.61907C5.53896 7.93313 5.67213 7.2501 5.79757 6.56513C5.88731 6.08275 6.08706 5.8898 6.56953 5.79911C7.25368 5.67466 7.93782 5.54249 8.6239 5.42382C8.72329 5.41083 8.81761 5.37226 8.89761 5.31189C8.97762 5.25151 9.04057 5.17141 9.08032 5.07941C9.4113 4.43882 9.7693 3.8127 10.109 3.17693C10.2894 2.83927 10.5577 2.69456 10.9388 2.74473C11.677 2.8412 12.4152 2.93767 13.1582 3.01389C13.3165 3.02468 13.4732 2.97582 13.5973 2.8769C14.1096 2.42154 14.5998 1.94109 15.0997 1.47125C15.5735 1.02554 15.7423 0.996599 16.3174 1.26576C16.9273 1.55519 17.541 1.82436 18.1402 2.12825C18.227 2.17708 18.3252 2.20192 18.4248 2.20022C18.5243 2.19853 18.6216 2.17036 18.7066 2.11861C19.33 1.80796 19.9611 1.51275 20.5893 1.21367C21.0351 1.00143 21.2773 1.03616 21.6353 1.3661C22.1834 1.87259 22.7247 2.3868 23.2757 2.88654C23.3783 2.98078 23.5079 3.04049 23.6462 3.05731C24.2464 3.09397 24.8486 3.12001 25.4497 3.11615C25.6218 3.10748 25.7856 3.03927 25.9129 2.9232C26.7572 2.10027 27.5861 1.26095 28.4218 0.427403C28.9892 -0.138903 29.2902 -0.141798 29.846 0.414861C31.0683 1.63687 32.2935 2.86275 33.5215 4.09248C34.6795 5.25854 35.8355 6.42813 36.9895 7.60126V8.10776C36.8159 8.30071 36.6528 8.51005 36.4675 8.69528C35.5083 9.66003 34.5434 10.6142 33.5572 11.5953C34.0619 11.986 34.5357 12.3507 35.0046 12.7192C35.4167 13.0405 35.4871 13.2498 35.3462 13.7506C35.1532 14.4211 34.9728 15.0916 34.7673 15.7572C34.7294 15.8559 34.7178 15.9628 34.7337 16.0673C34.7496 16.1719 34.7924 16.2705 34.858 16.3535C35.2594 16.9092 35.6377 17.4812 36.0227 18.0485C36.3498 18.5309 36.3517 18.7181 36.0323 19.1956C35.6463 19.7745 35.244 20.3465 34.8744 20.9379C34.7841 21.0964 34.7546 21.2822 34.7914 21.4608C34.9689 22.1574 35.1774 22.8481 35.3906 23.535C35.519 23.947 35.4147 24.2567 35.0751 24.5152C34.5106 24.9455 33.9596 25.3922 33.3941 25.8215C33.3097 25.8762 33.2408 25.9517 33.194 26.0407C33.1472 26.1298 33.1241 26.2294 33.1269 26.3299C33.1211 27.0149 33.0892 27.7008 33.0651 28.3858C33.0448 28.9695 32.9184 29.147 32.3761 29.3457C31.7103 29.5879 31.0397 29.8165 30.3816 30.0751C30.2364 30.1396 30.1204 30.2558 30.0564 30.4011C29.7978 31.0601 29.5681 31.7296 29.3269 32.3953C29.1339 32.9346 28.9515 33.0638 28.3619 33.0841C27.6759 33.1073 26.9907 33.1391 26.3056 33.1449C26.2051 33.1422 26.1056 33.1654 26.0167 33.2124C25.9277 33.2594 25.8525 33.3285 25.7981 33.4131C25.3696 33.9784 24.9219 34.5303 24.4915 35.0946C24.2329 35.4333 23.9222 35.5365 23.5111 35.4082C22.8241 35.1931 22.1342 34.9846 21.4375 34.8062C21.2583 34.7706 21.0722 34.8018 20.9145 34.894C20.3229 35.2625 19.7507 35.6658 19.1718 36.0517C18.7086 36.3623 18.5088 36.3652 18.0553 36.0575C17.4879 35.6716 16.9167 35.2953 16.3599 34.8998C16.2744 34.828 16.1714 34.7801 16.0614 34.7612C15.9513 34.7422 15.8383 34.7527 15.7336 34.7917C15.0582 35.0039 14.374 35.1824 13.6937 35.3783C13.2904 35.494 12.971 35.4043 12.7134 35.0531C12.3544 34.5611 11.9713 34.0884 11.5776 33.5771C10.7902 34.3662 10.0337 35.1361 9.26173 35.8925C8.89794 36.2658 8.49749 36.6276 8.10572 36.9962ZM29.159 1.86776L1.86251 29.1643L7.96871 35.2702C8.02909 35.1465 8.10321 35.03 8.18967 34.9229C11.7954 31.3096 15.404 27.6995 19.0154 24.0927C19.1134 23.9863 19.2189 23.887 19.331 23.7955C19.4648 23.6896 19.6326 23.6362 19.803 23.6453C19.9734 23.6543 20.1346 23.7253 20.2564 23.8447C20.3834 23.9663 20.4624 24.1295 20.4789 24.3046C20.4954 24.4796 20.4483 24.6548 20.3461 24.7979C20.2651 24.9015 20.1757 24.9983 20.0788 25.0873C18.641 26.5267 17.2029 27.9655 15.7645 29.4036C15.6767 29.4914 15.5928 29.584 15.4934 29.693C19.0318 30.7861 23.764 30.0085 27.0351 26.5315C30.3063 23.0546 30.6633 18.4161 29.6212 15.462C29.5247 15.545 29.4803 15.682 29.3896 15.7727C27.9538 17.214 26.5144 18.6518 25.0715 20.0861C24.9823 20.1831 24.8855 20.2728 24.782 20.3543C24.6388 20.4573 24.4626 20.5038 24.2872 20.4849C24.1118 20.4661 23.9495 20.3831 23.8315 20.252C23.7143 20.1287 23.6455 19.9673 23.6377 19.7973C23.6299 19.6274 23.6836 19.4603 23.789 19.3268C23.865 19.2333 23.9476 19.1453 24.0361 19.0634C27.663 15.4379 31.2915 11.814 34.9217 8.19169C35.0258 8.1044 35.1386 8.0281 35.2584 7.96401L29.159 1.86776ZM21.3969 7.49708C18.4847 6.6288 13.8703 7.12371 10.5142 10.4588C7.15815 13.794 6.61681 18.4228 7.49878 21.4049C12.1421 16.7586 16.7565 12.1404 21.3969 7.49708ZM2.70104 15.9328C3.02044 16.6149 3.32151 17.2835 3.64477 17.9385C3.7262 18.0863 3.76891 18.2522 3.76891 18.4209C3.76891 18.5896 3.7262 18.7555 3.64477 18.9033C3.35528 19.4715 3.1044 20.061 2.81588 20.6234C2.70877 20.8338 2.70491 20.9688 2.88632 21.1483C3.29835 21.5525 3.666 22.0021 4.07996 22.4024C4.40901 22.7198 4.56243 23.071 4.51419 23.5273C4.49864 23.8052 4.49703 24.0838 4.50936 24.3618C5.07289 23.7926 5.55633 23.2919 6.05327 22.8076C6.21346 22.6523 6.24048 22.5182 6.17679 22.3011C5.57353 20.2386 5.48869 18.0591 5.92977 15.956C7.39167 8.7908 14.7726 4.18606 21.8408 6.07311C22.4256 6.23036 22.7913 6.16089 23.1647 5.70553C23.4841 5.31288 23.8749 4.97908 24.3111 4.54784C23.9762 4.54784 23.7601 4.53819 23.5449 4.54784C23.0692 4.57292 22.6967 4.3983 22.3619 4.05292C21.9026 3.57923 21.4018 3.14605 20.9145 2.68683C20.2226 3.01871 19.5404 3.34287 18.8611 3.67282C18.7272 3.74337 18.5781 3.78023 18.4268 3.78023C18.2755 3.78023 18.1265 3.74337 17.9926 3.67282C17.3876 3.38339 16.7719 3.10843 16.1688 2.81129C15.9884 2.72253 15.8794 2.74279 15.7346 2.88365C15.2521 3.35637 14.7571 3.81076 14.2717 4.2777C14.162 4.38916 14.0261 4.47134 13.8764 4.51668C13.7267 4.56201 13.568 4.56908 13.4149 4.53723C12.7867 4.44075 12.1527 4.37129 11.5226 4.2806C11.2939 4.24876 11.1521 4.29797 11.0401 4.52855C10.7748 5.06688 10.4515 5.57626 10.1929 6.11748C9.98834 6.5468 9.66508 6.73396 9.21541 6.80535C8.53126 6.9134 7.85291 7.05715 7.17937 7.18353C7.03174 7.94761 6.87927 8.67599 6.75383 9.40823C6.72995 9.56831 6.66618 9.71982 6.56838 9.84879C6.47057 9.97776 6.34189 10.0801 6.19416 10.1463C5.6287 10.4357 5.08157 10.7656 4.51322 11.0531C4.30286 11.1602 4.244 11.2866 4.27391 11.5046C4.35787 12.1115 4.40225 12.725 4.51612 13.3261C4.56026 13.5127 4.55346 13.7078 4.49642 13.8909C4.43939 14.074 4.33422 14.2385 4.1919 14.367C3.68626 14.8716 3.19896 15.4061 2.70104 15.9328ZM12.64 32.5265C12.9295 32.9047 13.2074 33.2404 13.4554 33.5945C13.6021 33.8028 13.7449 33.8607 13.9948 33.7787C14.624 33.5761 15.2666 33.4218 15.8987 33.2288C16.0351 33.1822 16.1808 33.1699 16.3232 33.1927C16.4655 33.2156 16.6 33.273 16.715 33.36C17.2592 33.7372 17.817 34.0942 18.3496 34.4849C18.5658 34.6431 18.7124 34.6248 18.918 34.4782C19.4275 34.1154 19.9601 33.7855 20.4696 33.4237C20.6059 33.3154 20.7676 33.2438 20.9393 33.2156C21.1111 33.1874 21.2872 33.2036 21.451 33.2626C22.0541 33.4555 22.6707 33.6195 23.2766 33.8125C23.4986 33.8829 23.6346 33.8704 23.7861 33.6601C24.1654 33.1333 24.589 32.6384 24.9769 32.1165C25.0639 31.9866 25.1817 31.8802 25.3197 31.8068C25.4578 31.7334 25.6118 31.6953 25.7682 31.6958C26.3944 31.6842 27.0226 31.6476 27.645 31.6485C27.9518 31.6485 28.1159 31.5646 28.2104 31.2472C28.3822 30.6732 28.6273 30.1223 28.8126 29.5512C28.8587 29.3772 28.9495 29.2184 29.0759 29.0903C29.2023 28.9622 29.36 28.8693 29.5334 28.8209C30.1384 28.6279 30.7299 28.3887 31.3321 28.1842C31.5424 28.1118 31.637 28.0037 31.6389 27.7732C31.6466 27.0978 31.6794 26.4225 31.6949 25.7472C31.6956 25.597 31.733 25.4493 31.8038 25.3168C31.8746 25.1843 31.9767 25.0711 32.1011 24.987C32.7042 24.5307 33.2938 24.057 33.8911 23.59C33.6884 22.8896 33.5148 22.2027 33.287 21.5332C33.2133 21.3499 33.1895 21.1504 33.2181 20.955C33.2468 20.7595 33.3268 20.5752 33.4501 20.4208C33.812 19.9269 34.1256 19.3982 34.4855 18.9004C34.6273 18.7026 34.637 18.5646 34.4855 18.363C34.0995 17.8276 33.7425 17.269 33.3623 16.7278C33.271 16.6086 33.2108 16.4687 33.1869 16.3205C33.163 16.1724 33.1762 16.0206 33.2253 15.8788C33.4183 15.2363 33.5852 14.5832 33.783 13.9416C33.8477 13.7303 33.8023 13.6145 33.6286 13.4891C33.2581 13.2248 32.9039 12.9373 32.518 12.6392C32.0432 13.1158 31.5858 13.5933 31.1072 14.0467C30.921 14.2233 30.8978 14.3748 30.9769 14.614C31.6165 16.5279 31.7873 18.5672 31.4749 20.5607C31.004 23.562 29.6637 26.1177 27.4221 28.1822C25.2828 30.1551 22.7469 31.2694 19.8578 31.5656C18.0669 31.7412 16.2591 31.5401 14.5506 30.9752C14.4819 30.9546 14.4096 30.9491 14.3386 30.9593C14.2676 30.9695 14.1997 30.995 14.1396 31.034C13.6445 31.5087 13.1582 32.0084 12.6419 32.5265H12.64Z" fill="#6A6E79"/>
<path d="M18.729 19.4644C18.5919 19.5811 18.4983 19.6718 18.3941 19.749C18.2545 19.8554 18.0812 19.9082 17.9059 19.8978C17.7306 19.8873 17.5649 19.8144 17.4388 19.6921C17.305 19.5667 17.2261 19.3937 17.2192 19.2105C17.2124 19.0273 17.2781 18.8488 17.4022 18.7138C17.6994 18.3839 18.0168 18.0694 18.3449 17.7693C18.6547 17.4847 19.032 17.5069 19.3494 17.7964C20.1648 18.5382 20.4803 19.748 20.105 20.6906C19.6987 21.7103 18.6576 22.3799 17.5102 22.3529C16.0783 22.3201 14.9743 21.3003 14.7775 19.83C14.6106 18.5816 15.4723 17.2937 16.7421 16.8982C16.8562 16.8607 16.9734 16.8339 17.0924 16.8181C17.2631 16.8004 17.4346 16.8438 17.5763 16.9407C17.718 17.0376 17.8207 17.1816 17.8661 17.3471C17.9116 17.5126 17.8967 17.6888 17.8243 17.8444C17.7519 18 17.6266 18.1249 17.4707 18.1967C17.3626 18.245 17.241 18.2633 17.1281 18.3038C16.8715 18.3952 16.6487 18.5626 16.4895 18.7836C16.3304 19.0047 16.2423 19.269 16.2371 19.5413C16.2318 19.8137 16.3097 20.0811 16.4602 20.3082C16.6108 20.5352 16.8269 20.711 17.0799 20.8122C17.3338 20.9103 17.6116 20.9287 17.8762 20.865C18.1409 20.8012 18.3798 20.6582 18.5611 20.4552C18.8033 20.1773 18.8698 19.8706 18.729 19.4644Z" fill="#6A6E79"/>
<path d="M10.6515 29.2788C10.6462 29.8296 10.4777 30.3665 10.1675 30.8217C9.85722 31.277 9.41905 31.6301 8.90825 31.8366C8.39745 32.0431 7.83691 32.0936 7.29739 31.9819C6.75787 31.8702 6.26354 31.6012 5.87678 31.2089C5.49001 30.8166 5.22815 30.3185 5.12425 29.7775C5.02035 29.2366 5.07907 28.6769 5.29298 28.1693C5.50689 27.6617 5.86641 27.2287 6.32617 26.9252C6.78594 26.6216 7.32534 26.461 7.8763 26.4637C8.61747 26.4698 9.32593 26.7696 9.84622 27.2974C10.3665 27.8252 10.6561 28.5378 10.6515 29.2788ZM7.85894 30.5966C8.03612 30.6008 8.21233 30.5694 8.37719 30.5044C8.54204 30.4393 8.69218 30.3419 8.81876 30.2179C8.94534 30.0939 9.04579 29.9458 9.11417 29.7823C9.18255 29.6188 9.21748 29.4433 9.2169 29.2661C9.21632 29.0889 9.18024 28.9137 9.11079 28.7506C9.04134 28.5876 8.93993 28.4402 8.81254 28.317C8.68515 28.1938 8.53437 28.0974 8.36909 28.0334C8.20382 27.9695 8.02739 27.9392 7.85025 27.9446C7.67307 27.9404 7.49685 27.9718 7.332 28.0368C7.16714 28.1019 7.017 28.1993 6.89042 28.3233C6.76384 28.4473 6.66339 28.5954 6.59501 28.7589C6.52663 28.9224 6.4917 29.0979 6.49228 29.2751C6.49286 29.4523 6.52894 29.6275 6.59839 29.7906C6.66784 29.9536 6.76925 30.101 6.89664 30.2242C7.02403 30.3474 7.17481 30.4438 7.34009 30.5078C7.50537 30.5717 7.68179 30.602 7.85894 30.5966Z" fill="#6A6E79"/>
<path d="M23.6307 13.0972C23.2245 12.6843 22.8655 12.3167 22.5027 11.952C22.1167 11.5661 22.0637 11.1339 22.3696 10.8127C22.6909 10.476 23.1068 10.503 23.5082 10.8957C24.4123 11.7774 25.3184 12.6563 26.21 13.5477C26.7157 14.0533 26.5536 14.7797 25.9099 14.9312C25.7566 14.9555 25.6 14.95 25.4487 14.9148C24.6951 14.7855 23.9424 14.6466 23.1888 14.5115L23.1241 14.6012C23.5101 14.9717 23.8961 15.3364 24.2821 15.7155C24.4069 15.8303 24.4886 15.9843 24.5135 16.152C24.5384 16.3196 24.5051 16.4908 24.4191 16.6369C24.3672 16.7294 24.2948 16.809 24.2074 16.8693C24.1201 16.9297 24.0202 16.9694 23.9152 16.9853C23.8102 17.0012 23.703 16.9929 23.6017 16.9611C23.5004 16.9294 23.4077 16.8749 23.3306 16.8018C22.3213 15.8217 21.3303 14.8231 20.3393 13.8217C20.1048 13.5834 20.0865 13.2757 20.2496 12.9872C20.4126 12.6988 20.6925 12.5666 21.0428 12.6312C21.8803 12.7856 22.7179 12.9332 23.6307 13.0972Z" fill="#6A6E79"/>
<path d="M12.5697 26.6576C12.7627 26.8622 12.8949 26.9857 13.0087 27.1236C13.1258 27.2627 13.1872 27.4403 13.1811 27.6219C13.175 27.8036 13.102 27.9766 12.9759 28.1077C12.9143 28.1745 12.8401 28.2285 12.7576 28.2666C12.6751 28.3047 12.5858 28.3261 12.495 28.3296C12.4042 28.3331 12.3135 28.3186 12.2283 28.287C12.1431 28.2554 12.065 28.2072 11.9984 28.1453C11.5816 27.7594 11.1908 27.3552 10.7903 26.9558C10.2278 26.3962 9.66421 25.8366 9.10744 25.2713C8.70409 24.8623 8.70409 24.485 9.09779 24.0769C9.31523 23.8525 9.5362 23.6316 9.76071 23.4142C10.4014 22.7938 11.2612 22.6424 11.9801 23.0283C12.699 23.4142 13.002 24.1184 12.8572 25.0214C12.8495 25.0687 12.8389 25.1179 12.8225 25.1932C13.2345 25.225 13.6369 25.2539 14.0383 25.2896C14.5111 25.3311 14.7794 25.6205 14.7582 26.0614C14.7379 26.4714 14.4369 26.7454 13.9862 26.7368C13.5356 26.7281 13.1004 26.6875 12.5697 26.6576ZM11.1338 25.1912C11.2414 24.9694 11.3355 24.7413 11.4156 24.5082C11.4291 24.4599 11.2612 24.2911 11.2158 24.3046C10.9798 24.3898 10.7491 24.489 10.525 24.6018L11.1338 25.1912Z" fill="#6A6E79"/>
<path d="M27.0747 9.80743C27.4434 10.6255 27.7762 11.3452 28.0889 12.0736C28.1777 12.2551 28.2211 12.4554 28.2153 12.6573C28.1806 13.0036 27.9432 13.2197 27.5987 13.2699C27.4485 13.2975 27.2934 13.2735 27.1586 13.2017C27.0238 13.1298 26.9174 13.0145 26.8567 12.8744C26.7003 12.5637 26.5672 12.2415 26.4253 11.9231C25.9872 10.9487 25.5495 9.97369 25.112 8.99801C24.919 8.56966 24.9586 8.22621 25.2211 7.96187C25.4835 7.69753 25.8309 7.64157 26.2536 7.83163C27.5234 8.40212 28.7923 8.97582 30.0603 9.55274C30.3903 9.70227 30.5746 9.95891 30.5321 10.3245C30.4926 10.6709 30.2793 10.9121 29.9329 10.9516C29.7329 10.9594 29.534 10.9177 29.354 10.8301C28.6138 10.5127 27.8882 10.175 27.0747 9.80743Z" fill="#6A6E79"/>
<path d="M31.5061 7.60091C31.6449 7.41458 31.7944 7.23645 31.9538 7.0674C32.0209 6.99805 32.1011 6.94275 32.1897 6.90471C32.2784 6.86667 32.3737 6.84666 32.4702 6.84585C32.5667 6.84504 32.6623 6.86345 32.7516 6.9C32.8409 6.93655 32.922 6.99051 32.9902 7.05872C33.2739 7.3414 33.2797 7.7765 32.9834 8.09486C32.6631 8.43735 32.3302 8.77018 31.9895 9.08951C31.6489 9.40884 31.2629 9.42235 30.9281 9.09531C29.9516 8.13442 28.9828 7.16549 28.0217 6.18852C27.9518 6.1217 27.8963 6.04143 27.8583 5.95256C27.8203 5.86369 27.8008 5.76805 27.8008 5.67142C27.8008 5.57478 27.8203 5.47914 27.8583 5.39027C27.8963 5.3014 27.9518 5.22114 28.0217 5.15431C28.3208 4.86489 28.7299 4.86489 29.0532 5.1765C29.7499 5.85182 30.4331 6.55127 31.122 7.23913C31.2301 7.33947 31.3343 7.43594 31.5061 7.60091Z" fill="#6A6E79"/>
<path d="M16.6698 24.2592C16.4769 24.4859 16.3495 24.7203 16.1526 24.8525C15.8921 25.0281 15.592 24.9663 15.3546 24.756C15.1172 24.5457 14.9079 24.32 14.6869 24.099C13.939 23.3514 13.1893 22.6056 12.4463 21.8531C12.1462 21.5492 12.1095 21.1778 12.3237 20.8739C12.4216 20.7353 12.5652 20.6355 12.7293 20.5921C12.8933 20.5487 13.0675 20.5645 13.2211 20.6366C13.3367 20.7002 13.4418 20.7812 13.5328 20.8768C14.4437 21.7836 15.3575 22.6886 16.2568 23.608C16.4132 23.7672 16.5039 23.9929 16.6698 24.2592Z" fill="#6A6E79"/>
<path d="M18.953 14.3745C19.2048 14.5183 19.4065 14.5858 19.5435 14.7199C20.5046 15.6628 21.458 16.6137 22.4036 17.5726C22.7298 17.9026 22.7356 18.3444 22.447 18.6339C22.1585 18.9233 21.7233 18.9397 21.3856 18.6088C20.4206 17.6537 19.4625 16.6899 18.5033 15.728C18.265 15.4897 18.1849 15.1839 18.3566 14.908C18.4936 14.6986 18.7387 14.5597 18.953 14.3745Z" fill="#6A6E79"/>
<path d="M22.1252 21.391C22.2211 21.3911 22.3159 21.4105 22.404 21.4482C22.4922 21.4858 22.5718 21.5409 22.638 21.6101C22.7043 21.6794 22.7559 21.7613 22.7896 21.851C22.8234 21.9406 22.8386 22.0362 22.8345 22.132C22.8254 22.3186 22.7457 22.4949 22.6115 22.6249C22.4773 22.755 22.2986 22.8292 22.1117 22.8324C22.0159 22.8332 21.921 22.8147 21.8325 22.778C21.744 22.7413 21.6639 22.6872 21.5968 22.6189C21.5297 22.5505 21.477 22.4694 21.442 22.3802C21.407 22.2911 21.3902 22.1958 21.3928 22.1001C21.3904 22.0043 21.4079 21.9091 21.4441 21.8205C21.4804 21.7318 21.5346 21.6516 21.6035 21.585C21.6723 21.5183 21.7542 21.4667 21.844 21.4333C21.9338 21.3999 22.0296 21.3855 22.1252 21.391Z" fill="#6A6E79"/>
</svg>
